<svg xmlns="http://www.w3.org/2000/svg" viewBox="0 0 512 512">
  <style>
    path {
      fill: #172B4D;
    }

    @media (prefers-color-scheme: dark) {
      path {
        fill: #0052CC;
      }
    }
  </style>
  <g>
    <path d="M231.58,296.15H101.66V399.64H47.9V105.3H245v48.38H101.66v94.08H231.58Z"/>
    <path d="M473.05,315.86q0,41.67-26.43,65t-81.54,23.3q-63.16,0-108-23.3V329.3q21.06,10.76,51.52,17.92a252.59,252.59,0,0,0,57.8,7.17q52.41,0,52.41-36.74,0-16.56-13.21-26.65t-48.16-18.15q-53.76-11.64-77.06-32.48t-23.3-56.67q0-37.63,28-60.25t80-22.63q54.21,0,94.08,21.51V172.5a209.88,209.88,0,0,0-95.87-22.85q-52.86,0-52.86,34.5,0,15.24,13.88,24.42t48.84,17.69q52.85,11.66,76.38,32T473.05,315.86Z"/>
  </g>
</svg>
